<svg width="1292" height="381" viewBox="0 0 1292 381" fill="none" xmlns="http://www.w3.org/2000/svg">
<g filter="url(#filter0_bdii)">
<path d="M99.4641 59.7711L147.286 21.0157C149.739 19.0276 150.965 18.0336 152.424 17.5168C153.882 17 155.461 17 158.619 17L1148.83 17H1237.7C1246.19 17 1250.43 17 1253.07 19.636C1255.7 22.2721 1255.7 26.5147 1255.7 35V115.902C1255.7 118.821 1255.7 120.28 1256.15 121.643C1256.6 123.007 1257.46 124.184 1259.18 126.538L1282.57 158.475C1284.3 160.829 1285.16 162.006 1285.61 163.369C1286.05 164.733 1286.05 166.192 1286.05 169.11V204.658V291.804L1214.8 335.994L1156.75 372H227C223.953 372 222.43 372 221.015 371.517C219.601 371.033 218.396 370.101 215.986 368.237L53.6738 242.676C50.2434 240.022 48.5282 238.695 47.6079 236.819C46.6875 234.944 46.6875 232.775 46.6875 228.438V111.124C46.6875 106.906 46.6875 104.797 47.5635 102.96C48.4395 101.122 50.0778 99.7946 53.3544 97.1392L99.4641 59.7711Z" fill="white" fill-opacity="0.03"/>
<path d="M99.4641 59.7711L147.286 21.0157C149.739 19.0276 150.965 18.0336 152.424 17.5168C153.882 17 155.461 17 158.619 17L1148.83 17H1237.7C1246.19 17 1250.43 17 1253.07 19.636C1255.7 22.2721 1255.7 26.5147 1255.7 35V115.903C1255.7 118.821 1255.7 120.28 1256.15 121.643C1256.6 123.007 1257.46 124.184 1259.18 126.538L1282.57 158.475C1284.3 160.829 1285.16 162.006 1285.61 163.369C1286.05 164.733 1286.05 166.192 1286.05 169.11V204.658V291.804L1214.8 335.994L1156.75 372H227C223.953 372 222.43 372 221.015 371.517C219.601 371.033 218.396 370.101 215.986 368.237L53.6738 242.676C50.2434 240.022 48.5282 238.695 47.6079 236.819C46.6875 234.944 46.6875 232.775 46.6875 228.438V111.124C46.6875 106.906 46.6875 104.797 47.5635 102.96C48.4395 101.122 50.0778 99.7946 53.3544 97.1392L99.4641 59.7711Z" fill="white" fill-opacity="0.03"/>
<path d="M1286.55 292.082L1286.32 292.229L1215.07 336.419L1157.01 372.425L1156.75 372V372.5H227H226.894C226.894 372.5 226.894 372.5 226.894 372.5C223.948 372.5 222.347 372.5 220.854 371.99C219.36 371.48 218.094 370.5 215.764 368.698L215.68 368.633L53.3679 243.071L53.2468 242.977C53.0397 242.817 52.8384 242.662 52.6429 242.51C49.7106 240.237 48.07 238.896 47.159 237.04C46.1873 235.06 46.1874 232.781 46.1875 228.592L46.1875 228.438V111.124L46.1875 110.975C46.1874 107.799 46.1873 105.753 46.625 104.086C46.6875 103.848 46.759 103.618 46.8407 103.393C46.9209 103.172 47.011 102.957 47.1122 102.745C48.037 100.805 49.7582 99.4099 52.9239 96.8445C52.924 96.8445 52.924 96.8444 52.924 96.8444L52.9241 96.8444L53.0396 96.7508L99.1493 59.3826L146.971 20.6273L147.056 20.5581C147.204 20.4379 147.348 20.3212 147.489 20.2079C149.59 18.5072 150.813 17.557 152.257 17.0455C153.797 16.4999 155.456 16.4999 158.509 16.5L158.619 16.5L1148.83 16.5H1237.7H1237.74C1241.41 16.5 1244.32 16.5 1246.65 16.721C1247 16.7536 1247.33 16.791 1247.65 16.834C1248.9 17.0024 1249.99 17.258 1250.94 17.6497C1251.89 18.0414 1252.71 18.5693 1253.42 19.2825C1254.85 20.7088 1255.53 22.5514 1255.87 25.0575C1255.87 25.0576 1255.87 25.0578 1255.87 25.0579C1256.2 27.5417 1256.2 30.7505 1256.2 34.9587V35V115.902C1256.2 118.852 1256.21 120.217 1256.63 121.487C1256.63 121.487 1256.63 121.488 1256.63 121.488C1257.04 122.758 1257.84 123.863 1259.59 126.243L1282.98 158.179L1283.04 158.26C1283.14 158.402 1283.24 158.54 1283.34 158.675C1284.82 160.692 1285.64 161.864 1286.08 163.214C1286.14 163.394 1286.19 163.575 1286.24 163.761C1286.55 165.057 1286.55 166.54 1286.55 169.008V292.082ZM1286.55 292.082V291.804V204.658M1286.55 292.082V204.658M1286.55 204.658V169.11V169.011V204.658Z" stroke="url(#paint0_linear)" stroke-opacity="0.15"/>
</g>
<g filter="url(#filter1_bdii)">
<path d="M53.8662 40.8795L98.042 5.02414C100.497 3.03194 101.724 2.03584 103.184 1.51792C104.644 1 106.224 1 109.386 1L1137.13 1L1218.63 1C1227.11 1 1231.35 1 1233.99 3.63604C1236.63 6.27208 1236.63 10.5147 1236.63 19V98.7048V142V292L1190.56 320.5L1144.5 349H173.031C169.981 349 168.456 349 167.04 348.516C165.624 348.031 164.418 347.097 162.007 345.229L11.7082 228.784C8.28279 226.13 6.57009 224.803 5.6512 222.929C4.73231 221.055 4.73231 218.888 4.73231 214.555L4.73231 89.3321C4.73231 85.1186 4.73231 83.0118 5.60686 81.1756C6.48141 79.3394 8.1172 78.0117 11.3888 75.3563L53.8662 40.8795Z" fill="white" fill-opacity="0.03"/>
<path d="M1144.63 349.213L1190.7 320.713L1236.76 292.213L1236.88 292.139V292V142V98.7048V19V18.9814C1236.88 14.755 1236.88 11.559 1236.54 9.09124C1236.21 6.61269 1235.54 4.83147 1234.17 3.45926C1232.79 2.08705 1231.01 1.41497 1228.54 1.08173C1226.07 0.749999 1222.87 0.749999 1218.65 0.75H1218.63L1137.13 0.75L109.386 0.75L109.328 0.75C106.221 0.749979 104.601 0.749969 103.1 1.28231C101.6 1.81464 100.341 2.83604 97.9294 4.79358L97.8845 4.83003L53.7086 40.6854L11.2312 75.1622L11.1706 75.2114C7.95706 77.8196 6.28005 79.1807 5.38115 81.0681C4.48225 82.9554 4.48227 85.1152 4.48231 89.2541L4.48231 89.3321L4.48231 214.555L4.48231 214.635C4.48227 218.891 4.48225 221.113 5.42672 223.039C6.37119 224.966 8.12697 226.326 11.4914 228.932L11.5551 228.982L161.854 345.427L161.897 345.461C164.267 347.296 165.503 348.254 166.959 348.752C168.414 349.25 169.978 349.25 172.975 349.25H173.031H1144.5H1144.57L1144.63 349.213Z" stroke="url(#paint1_linear)" stroke-opacity="0.15" stroke-width="0.5"/>
</g>
<defs>
<filter id="filter0_bdii" x="36.6875" y="7" width="1259.36" height="375" filterUnits="userSpaceOnUse" color-interpolation-filters="sRGB">
<feFlood flood-opacity="0" result="BackgroundImageFix"/>
<feGaussianBlur in="BackgroundImage" stdDeviation="4.5"/>
<feComposite in2="SourceAlpha" operator="in" result="effect1_backgroundBlur"/>
<feColorMatrix in="SourceAlpha" type="matrix" values="0 0 0 0 0 0 0 0 0 0 0 0 0 0 0 0 0 0 127 0"/>
<feOffset dy="4"/>
<feGaussianBlur stdDeviation="2"/>
<feColorMatrix type="matrix" values="0 0 0 0 0 0 0 0 0 0 0 0 0 0 0 0 0 0 0.25 0"/>
<feBlend mode="normal" in2="effect1_backgroundBlur" result="effect2_dropShadow"/>
<feBlend mode="normal" in="SourceGraphic" in2="effect2_dropShadow" result="shape"/>
<feColorMatrix in="SourceAlpha" type="matrix" values="0 0 0 0 0 0 0 0 0 0 0 0 0 0 0 0 0 0 127 0" result="hardAlpha"/>
<feOffset dx="1" dy="1"/>
<feGaussianBlur stdDeviation="6.5"/>
<feComposite in2="hardAlpha" operator="arithmetic" k2="-1" k3="1"/>
<feColorMatrix type="matrix" values="0 0 0 0 1 0 0 0 0 1 0 0 0 0 1 0 0 0 0.09 0"/>
<feBlend mode="normal" in2="shape" result="effect3_innerShadow"/>
<feColorMatrix in="SourceAlpha" type="matrix" values="0 0 0 0 0 0 0 0 0 0 0 0 0 0 0 0 0 0 127 0" result="hardAlpha"/>
<feOffset/>
<feGaussianBlur stdDeviation="4.5"/>
<feComposite in2="hardAlpha" operator="arithmetic" k2="-1" k3="1"/>
<feColorMatrix type="matrix" values="0 0 0 0 0 0 0 0 0 0 0 0 0 0 0 0 0 0 0.15 0"/>
<feBlend mode="normal" in2="effect3_innerShadow" result="effect4_innerShadow"/>
</filter>
<filter id="filter1_bdii" x="-1.7677" y="-5.5" width="1244.89" height="363" filterUnits="userSpaceOnUse" color-interpolation-filters="sRGB">
<feFlood flood-opacity="0" result="BackgroundImageFix"/>
<feGaussianBlur in="BackgroundImage" stdDeviation="3"/>
<feComposite in2="SourceAlpha" operator="in" result="effect1_backgroundBlur"/>
<feColorMatrix in="SourceAlpha" type="matrix" values="0 0 0 0 0 0 0 0 0 0 0 0 0 0 0 0 0 0 127 0"/>
<feOffset dy="4"/>
<feGaussianBlur stdDeviation="2"/>
<feColorMatrix type="matrix" values="0 0 0 0 0 0 0 0 0 0 0 0 0 0 0 0 0 0 0.25 0"/>
<feBlend mode="normal" in2="effect1_backgroundBlur" result="effect2_dropShadow"/>
<feBlend mode="normal" in="SourceGraphic" in2="effect2_dropShadow" result="shape"/>
<feColorMatrix in="SourceAlpha" type="matrix" values="0 0 0 0 0 0 0 0 0 0 0 0 0 0 0 0 0 0 127 0" result="hardAlpha"/>
<feOffset dx="1" dy="1"/>
<feGaussianBlur stdDeviation="6.5"/>
<feComposite in2="hardAlpha" operator="arithmetic" k2="-1" k3="1"/>
<feColorMatrix type="matrix" values="0 0 0 0 1 0 0 0 0 1 0 0 0 0 1 0 0 0 0.09 0"/>
<feBlend mode="normal" in2="shape" result="effect3_innerShadow"/>
<feColorMatrix in="SourceAlpha" type="matrix" values="0 0 0 0 0 0 0 0 0 0 0 0 0 0 0 0 0 0 127 0" result="hardAlpha"/>
<feOffset/>
<feGaussianBlur stdDeviation="4.5"/>
<feComposite in2="hardAlpha" operator="arithmetic" k2="-1" k3="1"/>
<feColorMatrix type="matrix" values="0 0 0 0 0 0 0 0 0 0 0 0 0 0 0 0 0 0 0.15 0"/>
<feBlend mode="normal" in2="effect3_innerShadow" result="effect4_innerShadow"/>
</filter>
<linearGradient id="paint0_linear" x1="1002.38" y1="282.18" x2="821.183" y2="606.736" gradientUnits="userSpaceOnUse">
<stop stop-color="white"/>
<stop offset="1" stop-color="white" stop-opacity="0"/>
</linearGradient>
<linearGradient id="paint1_linear" x1="902.904" y1="265.253" x2="733.824" y2="567.648" gradientUnits="userSpaceOnUse">
<stop stop-color="white"/>
<stop offset="1" stop-color="white" stop-opacity="0"/>
</linearGradient>
</defs>
</svg>
