<svg width="939" height="381" viewBox="0 0 939 381" fill="none" xmlns="http://www.w3.org/2000/svg">
<g filter="url(#filter0_bdii)">
<path d="M164.598 21.0157C167.051 19.0276 168.278 18.0336 169.736 17.5168C171.195 17 172.774 17 175.931 17H885.707C894.192 17 898.435 17 901.071 19.636C903.707 22.2721 903.707 26.5147 903.707 35V115.903C903.707 118.821 903.707 120.28 904.152 121.643C904.598 123.007 905.46 124.184 907.185 126.538L930.575 158.475C932.299 160.829 933.162 162.006 933.607 163.369C934.053 164.733 934.053 166.192 934.053 169.11V281.787C934.053 286.683 934.053 289.131 932.917 291.172C931.782 293.213 929.701 294.503 925.541 297.084L809.109 369.297C806.944 370.64 805.861 371.311 804.652 371.656C803.443 372 802.169 372 799.622 372H244.312C241.266 372 239.743 372 238.328 371.517C236.913 371.033 235.708 370.101 233.299 368.237L70.9863 242.676C67.5559 240.022 65.8407 238.695 64.9203 236.819C64 234.944 64 232.775 64 228.438V111.124C64 106.906 64 104.797 64.876 102.96C65.752 101.122 67.3903 99.7946 70.6669 97.1392L164.598 21.0157Z" fill="white" fill-opacity="0.03"/>
<path d="M164.598 21.0157C167.051 19.0276 168.278 18.0336 169.736 17.5168C171.195 17 172.774 17 175.931 17H885.707C894.192 17 898.435 17 901.071 19.636C903.707 22.2721 903.707 26.5147 903.707 35V115.903C903.707 118.821 903.707 120.28 904.152 121.643C904.598 123.007 905.46 124.184 907.185 126.538L930.575 158.475C932.299 160.829 933.162 162.006 933.607 163.369C934.053 164.733 934.053 166.192 934.053 169.11V281.787C934.053 286.683 934.053 289.131 932.917 291.172C931.782 293.213 929.701 294.503 925.541 297.084L809.109 369.297C806.944 370.64 805.861 371.311 804.652 371.656C803.443 372 802.169 372 799.622 372H244.312C241.266 372 239.743 372 238.328 371.517C236.913 371.033 235.708 370.101 233.299 368.237L70.9863 242.676C67.5559 240.022 65.8407 238.695 64.9203 236.819C64 234.944 64 232.775 64 228.438V111.124C64 106.906 64 104.797 64.876 102.96C65.752 101.122 67.3903 99.7946 70.6669 97.1392L164.598 21.0157Z" fill="white" fill-opacity="0.03"/>
<path d="M98.3097 5.02414C100.764 3.03194 101.991 2.03584 103.451 1.51792C104.911 1 106.492 1 109.653 1H866.626C875.111 1 879.354 1 881.99 3.63604C884.626 6.27208 884.626 10.5147 884.626 19V281.97C884.626 286.872 884.626 289.323 883.488 291.366C882.35 293.408 880.265 294.698 876.097 297.277L796.852 346.307C794.69 347.645 793.609 348.314 792.402 348.657C791.196 349 789.924 349 787.382 349H173.299C170.249 349 168.724 349 167.307 348.516C165.891 348.031 164.686 347.097 162.275 345.229L11.9759 228.784C8.55048 226.13 6.83778 224.803 5.91889 222.929C5 221.055 5 218.888 5 214.555V89.3321C5 85.1186 5 83.0118 5.87455 81.1756C6.7491 79.3394 8.3849 78.0117 11.6565 75.3563L98.3097 5.02414Z" fill="white" fill-opacity="0.03"/>
<path d="M809.241 369.509L925.672 297.296L925.684 297.289C927.754 296.005 929.323 295.032 930.515 294.125C931.713 293.212 932.545 292.355 933.136 291.294C933.726 290.233 934.016 289.073 934.16 287.574C934.303 286.083 934.303 284.237 934.303 281.8V281.787V169.11V169.057C934.303 166.189 934.303 164.693 933.845 163.292C933.387 161.891 932.503 160.683 930.808 158.37L930.777 158.327L907.387 126.391C905.653 124.023 904.821 122.882 904.39 121.566C903.959 120.249 903.957 118.837 903.957 115.903V35V34.9791C903.957 30.7539 903.957 27.5585 903.625 25.0912C903.292 22.6127 902.62 20.8315 901.247 19.4593C899.875 18.0871 898.094 17.415 895.615 17.0817C893.148 16.75 889.953 16.75 885.727 16.75H885.707H884.874C884.865 13.6029 884.815 11.1047 884.544 9.09124C884.211 6.61269 883.539 4.83147 882.167 3.45926C880.794 2.08705 879.013 1.41497 876.535 1.08173C874.067 0.749999 870.872 0.749999 866.646 0.75H866.626H109.653L109.595 0.75C106.489 0.749979 104.868 0.749969 103.368 1.28231C101.867 1.81464 100.609 2.83604 98.1971 4.79358L98.1522 4.83003L11.4989 75.1622L11.4383 75.2114C8.22475 77.8196 6.54774 79.1807 5.64884 81.0681C4.74995 82.9554 4.74996 85.1152 4.75 89.2541L4.75 89.3321V214.555L4.75 214.635C4.74996 218.891 4.74994 221.113 5.69442 223.039C6.63889 224.966 8.39466 226.326 11.7591 228.932L11.8228 228.982L162.121 345.427L162.165 345.461C164.535 347.297 165.771 348.254 167.226 348.752C168.682 349.25 170.246 349.25 173.243 349.25H173.299H208.345L233.146 368.435L233.19 368.469C235.558 370.301 236.793 371.257 238.247 371.753C239.701 372.25 241.263 372.25 244.257 372.25H244.312H799.622H799.668C802.172 372.25 803.478 372.25 804.721 371.896C805.964 371.542 807.074 370.853 809.202 369.533L809.241 369.509Z" stroke="url(#paint0_linear)" stroke-opacity="0.15" stroke-width="0.5"/>
</g>
<defs>
<filter id="filter0_bdii" x="-4.5" y="-8.5" width="947.803" height="389.75" filterUnits="userSpaceOnUse" color-interpolation-filters="sRGB">
<feFlood flood-opacity="0" result="BackgroundImageFix"/>
<feGaussianBlur in="BackgroundImage" stdDeviation="4.5"/>
<feComposite in2="SourceAlpha" operator="in" result="effect1_backgroundBlur"/>
<feColorMatrix in="SourceAlpha" type="matrix" values="0 0 0 0 0 0 0 0 0 0 0 0 0 0 0 0 0 0 127 0"/>
<feOffset dy="4"/>
<feGaussianBlur stdDeviation="2"/>
<feColorMatrix type="matrix" values="0 0 0 0 0 0 0 0 0 0 0 0 0 0 0 0 0 0 0.25 0"/>
<feBlend mode="normal" in2="effect1_backgroundBlur" result="effect2_dropShadow"/>
<feBlend mode="normal" in="SourceGraphic" in2="effect2_dropShadow" result="shape"/>
<feColorMatrix in="SourceAlpha" type="matrix" values="0 0 0 0 0 0 0 0 0 0 0 0 0 0 0 0 0 0 127 0" result="hardAlpha"/>
<feOffset dx="1" dy="1"/>
<feGaussianBlur stdDeviation="6.5"/>
<feComposite in2="hardAlpha" operator="arithmetic" k2="-1" k3="1"/>
<feColorMatrix type="matrix" values="0 0 0 0 1 0 0 0 0 1 0 0 0 0 1 0 0 0 0.09 0"/>
<feBlend mode="normal" in2="shape" result="effect3_innerShadow"/>
<feColorMatrix in="SourceAlpha" type="matrix" values="0 0 0 0 0 0 0 0 0 0 0 0 0 0 0 0 0 0 127 0" result="hardAlpha"/>
<feOffset/>
<feGaussianBlur stdDeviation="4.5"/>
<feComposite in2="hardAlpha" operator="arithmetic" k2="-1" k3="1"/>
<feColorMatrix type="matrix" values="0 0 0 0 0 0 0 0 0 0 0 0 0 0 0 0 0 0 0.15 0"/>
<feBlend mode="normal" in2="effect3_innerShadow" result="effect4_innerShadow"/>
</filter>
<linearGradient id="paint0_linear" x1="550.905" y1="265.253" x2="381.824" y2="567.648" gradientUnits="userSpaceOnUse">
<stop stop-color="white"/>
<stop offset="1" stop-color="white" stop-opacity="0"/>
</linearGradient>
</defs>
</svg>
