<svg width="1109" height="381" viewBox="0 0 1109 381" fill="none" xmlns="http://www.w3.org/2000/svg">
<g filter="url(#filter0_bdii)">
<path d="M112.464 59.7711L160.286 21.0157C162.739 19.0276 163.965 18.0336 165.424 17.5168C166.882 17 168.461 17 171.619 17L965.832 17H1054.7C1063.19 17 1067.43 17 1070.07 19.636C1072.7 22.2721 1072.7 26.5147 1072.7 35V115.902C1072.7 118.821 1072.7 120.28 1073.15 121.643C1073.6 123.007 1074.46 124.184 1076.18 126.538L1099.57 158.475C1101.3 160.829 1102.16 162.006 1102.61 163.369C1103.05 164.733 1103.05 166.192 1103.05 169.11V204.658V291.804L1031.8 335.994L973.748 372H240C236.953 372 235.43 372 234.015 371.517C232.601 371.033 231.396 370.101 228.986 368.237L66.6738 242.676C63.2434 240.022 61.5282 238.695 60.6079 236.819C59.6875 234.944 59.6875 232.775 59.6875 228.438V111.124C59.6875 106.906 59.6875 104.797 60.5635 102.96C61.4395 101.122 63.0778 99.7946 66.3544 97.1392L112.464 59.7711Z" fill="white" fill-opacity="0.03"/>
<path d="M112.464 59.7711L160.286 21.0157C162.739 19.0276 163.965 18.0336 165.424 17.5168C166.882 17 168.461 17 171.619 17L965.832 17H1054.7C1063.19 17 1067.43 17 1070.07 19.636C1072.7 22.2721 1072.7 26.5147 1072.7 35V115.903C1072.7 118.821 1072.7 120.28 1073.15 121.643C1073.6 123.007 1074.46 124.184 1076.18 126.538L1099.57 158.475C1101.3 160.829 1102.16 162.006 1102.61 163.369C1103.05 164.733 1103.05 166.192 1103.05 169.11V204.658V291.804L1031.8 335.994L973.748 372H240C236.953 372 235.43 372 234.015 371.517C232.601 371.033 231.396 370.101 228.986 368.237L66.6738 242.676C63.2434 240.022 61.5282 238.695 60.6079 236.819C59.6875 234.944 59.6875 232.775 59.6875 228.438V111.124C59.6875 106.906 59.6875 104.797 60.5635 102.96C61.4395 101.122 63.0778 99.7946 66.3544 97.1392L112.464 59.7711Z" fill="white" fill-opacity="0.03"/>
<path d="M1103.55 292.082L1103.32 292.229L1032.07 336.419L974.012 372.425L973.748 372V372.5H240H239.894C239.894 372.5 239.894 372.5 239.894 372.5C236.948 372.5 235.347 372.5 233.854 371.99C232.36 371.48 231.094 370.5 228.764 368.698L228.68 368.633L66.3679 243.071L66.2468 242.977C66.0397 242.817 65.8384 242.662 65.6429 242.51C62.7106 240.237 61.07 238.896 60.159 237.04C59.1873 235.06 59.1874 232.781 59.1875 228.592L59.1875 228.438V111.124L59.1875 110.975C59.1874 107.799 59.1873 105.753 59.625 104.086C59.6875 103.848 59.759 103.618 59.8407 103.393C59.9209 103.172 60.011 102.957 60.1122 102.745C61.037 100.805 62.7582 99.4099 65.9239 96.8445C65.924 96.8445 65.924 96.8444 65.924 96.8444L65.9241 96.8444L66.0396 96.7508L112.149 59.3826L159.971 20.6273L160.056 20.5581C160.204 20.4379 160.348 20.3212 160.489 20.2079C162.59 18.5072 163.813 17.557 165.257 17.0455C166.797 16.4999 168.456 16.4999 171.509 16.5L171.619 16.5L965.832 16.5H1054.7H1054.74C1058.95 16.5 1062.16 16.5 1064.65 16.834C1065.27 16.9182 1065.86 17.0242 1066.41 17.1581C1068.05 17.5598 1069.35 18.2127 1070.42 19.2825C1071.85 20.7089 1072.53 22.5517 1072.87 25.0579C1072.91 25.3685 1072.95 25.6903 1072.98 26.024C1073.2 28.3601 1073.2 31.2778 1073.2 34.961V35V115.902C1073.2 118.853 1073.21 120.218 1073.63 121.488C1073.68 121.647 1073.74 121.803 1073.8 121.959C1074.26 123.054 1075.06 124.16 1076.59 126.243L1099.98 158.179L1100.04 158.26C1100.14 158.402 1100.24 158.54 1100.34 158.675C1101.82 160.692 1102.64 161.864 1103.08 163.214C1103.14 163.394 1103.19 163.575 1103.24 163.761C1103.55 165.057 1103.55 166.54 1103.55 169.008V292.082ZM1103.55 292.082V291.804V204.658M1103.55 292.082V204.658M1103.55 204.658V169.11V169.011V204.658Z" stroke="url(#paint0_linear)" stroke-opacity="0.15"/>
</g>
<g filter="url(#filter1_bdii)">
<path d="M54.5001 40.8795L98.6759 5.02414C101.13 3.03194 102.358 2.03584 103.818 1.51792C105.278 1 106.858 1 110.019 1L954.13 1L1035.63 1C1044.11 1 1048.35 1 1050.99 3.63604C1053.63 6.27208 1053.63 10.5147 1053.63 19V98.7048V142V292L1007.56 320.5L961.5 349H173.665C170.615 349 169.09 349 167.674 348.516C166.257 348.031 165.052 347.097 162.641 345.229L12.3421 228.784C8.91669 226.13 7.204 224.803 6.2851 222.929C5.36621 221.055 5.36621 218.888 5.36621 214.555L5.36621 89.3321C5.36621 85.1186 5.36621 83.0118 6.24076 81.1756C7.11531 79.3394 8.75111 78.0117 12.0227 75.3563L54.5001 40.8795Z" fill="white" fill-opacity="0.03"/>
<path d="M961.632 349.213L1007.69 320.713L1053.76 292.213L1053.88 292.139V292V142V98.7048V19V18.9814C1053.88 14.755 1053.88 11.559 1053.54 9.09124C1053.21 6.61269 1052.54 4.83147 1051.17 3.45926C1049.79 2.08705 1048.01 1.41497 1045.54 1.08173C1043.07 0.749999 1039.87 0.749999 1035.65 0.75H1035.63L954.13 0.75L110.019 0.75L109.962 0.75C106.855 0.749979 105.235 0.749969 103.734 1.28231C102.233 1.81464 100.975 2.83604 98.5633 4.79358L98.5184 4.83003L54.3425 40.6854L11.8651 75.1622L11.8045 75.2114C8.59096 77.8196 6.91396 79.1807 6.01506 81.0681C5.11616 82.9554 5.11618 85.1152 5.11621 89.2541L5.11621 89.3321L5.11621 214.555L5.11621 214.635C5.11617 218.891 5.11615 221.113 6.06063 223.039C7.0051 224.966 8.76088 226.326 12.1253 228.932L12.189 228.982L162.488 345.427L162.531 345.461C164.901 347.296 166.137 348.254 167.593 348.752C169.048 349.25 170.612 349.25 173.609 349.25H173.665H961.5H961.572L961.632 349.213Z" stroke="url(#paint1_linear)" stroke-opacity="0.15" stroke-width="0.5"/>
</g>
<defs>
<filter id="filter0_bdii" x="49.6875" y="7" width="1063.36" height="375" filterUnits="userSpaceOnUse" color-interpolation-filters="sRGB">
<feFlood flood-opacity="0" result="BackgroundImageFix"/>
<feGaussianBlur in="BackgroundImage" stdDeviation="4.5"/>
<feComposite in2="SourceAlpha" operator="in" result="effect1_backgroundBlur"/>
<feColorMatrix in="SourceAlpha" type="matrix" values="0 0 0 0 0 0 0 0 0 0 0 0 0 0 0 0 0 0 127 0"/>
<feOffset dy="4"/>
<feGaussianBlur stdDeviation="2"/>
<feColorMatrix type="matrix" values="0 0 0 0 0 0 0 0 0 0 0 0 0 0 0 0 0 0 0.25 0"/>
<feBlend mode="normal" in2="effect1_backgroundBlur" result="effect2_dropShadow"/>
<feBlend mode="normal" in="SourceGraphic" in2="effect2_dropShadow" result="shape"/>
<feColorMatrix in="SourceAlpha" type="matrix" values="0 0 0 0 0 0 0 0 0 0 0 0 0 0 0 0 0 0 127 0" result="hardAlpha"/>
<feOffset dx="1" dy="1"/>
<feGaussianBlur stdDeviation="6.5"/>
<feComposite in2="hardAlpha" operator="arithmetic" k2="-1" k3="1"/>
<feColorMatrix type="matrix" values="0 0 0 0 1 0 0 0 0 1 0 0 0 0 1 0 0 0 0.09 0"/>
<feBlend mode="normal" in2="shape" result="effect3_innerShadow"/>
<feColorMatrix in="SourceAlpha" type="matrix" values="0 0 0 0 0 0 0 0 0 0 0 0 0 0 0 0 0 0 127 0" result="hardAlpha"/>
<feOffset/>
<feGaussianBlur stdDeviation="4.5"/>
<feComposite in2="hardAlpha" operator="arithmetic" k2="-1" k3="1"/>
<feColorMatrix type="matrix" values="0 0 0 0 0 0 0 0 0 0 0 0 0 0 0 0 0 0 0.15 0"/>
<feBlend mode="normal" in2="effect3_innerShadow" result="effect4_innerShadow"/>
</filter>
<filter id="filter1_bdii" x="-1.13379" y="-5.5" width="1061.26" height="363" filterUnits="userSpaceOnUse" color-interpolation-filters="sRGB">
<feFlood flood-opacity="0" result="BackgroundImageFix"/>
<feGaussianBlur in="BackgroundImage" stdDeviation="3"/>
<feComposite in2="SourceAlpha" operator="in" result="effect1_backgroundBlur"/>
<feColorMatrix in="SourceAlpha" type="matrix" values="0 0 0 0 0 0 0 0 0 0 0 0 0 0 0 0 0 0 127 0"/>
<feOffset dy="4"/>
<feGaussianBlur stdDeviation="2"/>
<feColorMatrix type="matrix" values="0 0 0 0 0 0 0 0 0 0 0 0 0 0 0 0 0 0 0.25 0"/>
<feBlend mode="normal" in2="effect1_backgroundBlur" result="effect2_dropShadow"/>
<feBlend mode="normal" in="SourceGraphic" in2="effect2_dropShadow" result="shape"/>
<feColorMatrix in="SourceAlpha" type="matrix" values="0 0 0 0 0 0 0 0 0 0 0 0 0 0 0 0 0 0 127 0" result="hardAlpha"/>
<feOffset dx="1" dy="1"/>
<feGaussianBlur stdDeviation="6.5"/>
<feComposite in2="hardAlpha" operator="arithmetic" k2="-1" k3="1"/>
<feColorMatrix type="matrix" values="0 0 0 0 1 0 0 0 0 1 0 0 0 0 1 0 0 0 0.09 0"/>
<feBlend mode="normal" in2="shape" result="effect3_innerShadow"/>
<feColorMatrix in="SourceAlpha" type="matrix" values="0 0 0 0 0 0 0 0 0 0 0 0 0 0 0 0 0 0 127 0" result="hardAlpha"/>
<feOffset/>
<feGaussianBlur stdDeviation="4.5"/>
<feComposite in2="hardAlpha" operator="arithmetic" k2="-1" k3="1"/>
<feColorMatrix type="matrix" values="0 0 0 0 0 0 0 0 0 0 0 0 0 0 0 0 0 0 0.15 0"/>
<feBlend mode="normal" in2="effect3_innerShadow" result="effect4_innerShadow"/>
</filter>
<linearGradient id="paint0_linear" x1="819.379" y1="282.181" x2="638.183" y2="606.736" gradientUnits="userSpaceOnUse">
<stop stop-color="white"/>
<stop offset="1" stop-color="white" stop-opacity="0"/>
</linearGradient>
<linearGradient id="paint1_linear" x1="719.905" y1="265.253" x2="550.824" y2="567.648" gradientUnits="userSpaceOnUse">
<stop stop-color="white"/>
<stop offset="1" stop-color="white" stop-opacity="0"/>
</linearGradient>
</defs>
</svg>
