<svg width="1177" height="381" viewBox="0 0 1177 381" fill="none" xmlns="http://www.w3.org/2000/svg">
<g filter="url(#filter0_bdii)">
<path d="M105.777 59.7711L153.598 21.0157C156.051 19.0276 157.278 18.0336 158.736 17.5168C160.195 17 161.774 17 164.931 17L1033.83 17H1122.7C1131.19 17 1135.43 17 1138.07 19.636C1140.7 22.2721 1140.7 26.5147 1140.7 35V115.902C1140.7 118.821 1140.7 120.28 1141.15 121.643C1141.6 123.007 1142.46 124.184 1144.18 126.538L1167.57 158.475C1169.3 160.829 1170.16 162.006 1170.61 163.369C1171.05 164.733 1171.05 166.192 1171.05 169.11V204.658V291.804L1099.8 335.994L1041.75 372H233.312C230.266 372 228.743 372 227.328 371.517C225.913 371.033 224.708 370.101 222.299 368.237L59.9863 242.676C56.5559 240.022 54.8407 238.695 53.9204 236.819C53 234.944 53 232.775 53 228.438V111.124C53 106.906 53 104.797 53.876 102.96C54.752 101.122 56.3903 99.7946 59.6669 97.1392L105.777 59.7711Z" fill="white" fill-opacity="0.03"/>
<path d="M105.777 59.7711L153.598 21.0157C156.051 19.0276 157.278 18.0336 158.736 17.5168C160.195 17 161.774 17 164.931 17L1033.83 17H1122.7C1131.19 17 1135.43 17 1138.07 19.636C1140.7 22.2721 1140.7 26.5147 1140.7 35V115.903C1140.7 118.821 1140.7 120.28 1141.15 121.643C1141.6 123.007 1142.46 124.184 1144.18 126.538L1167.57 158.475C1169.3 160.829 1170.16 162.006 1170.61 163.369C1171.05 164.733 1171.05 166.192 1171.05 169.11V204.658V291.804L1099.8 335.994L1041.75 372H233.312C230.266 372 228.743 372 227.328 371.517C225.913 371.033 224.708 370.101 222.299 368.237L59.9863 242.676C56.5559 240.022 54.8407 238.695 53.9204 236.819C53 234.944 53 232.775 53 228.438V111.124C53 106.906 53 104.797 53.876 102.96C54.752 101.122 56.3903 99.7946 59.6669 97.1392L105.777 59.7711Z" fill="white" fill-opacity="0.03"/>
<path d="M1171.55 292.082L1171.32 292.229L1100.07 336.419L1042.01 372.425L1041.75 372V372.5H233.312H233.207C233.206 372.5 233.206 372.5 233.206 372.5C230.261 372.5 228.66 372.5 227.166 371.99C225.673 371.48 224.407 370.5 222.077 368.698L221.993 368.633L59.6804 243.071L59.5593 242.977C59.3522 242.817 59.1509 242.662 58.9554 242.51C56.0231 240.237 54.3825 238.896 53.4715 237.04C52.4998 235.06 52.4999 232.781 52.5 228.592L52.5 228.438V111.124L52.5 110.975C52.4999 107.799 52.4998 105.753 52.9375 104.086C53 103.848 53.0715 103.618 53.1532 103.393C53.2334 103.172 53.3235 102.957 53.4247 102.745C54.3495 100.805 56.0707 99.4099 59.2364 96.8445C59.2365 96.8445 59.2365 96.8444 59.2365 96.8444L59.2366 96.8444L59.3521 96.7508L105.462 59.3826L153.283 20.6273L153.369 20.5581C153.517 20.4379 153.661 20.3212 153.801 20.2079C155.903 18.5072 157.126 17.557 158.569 17.0455C160.109 16.4999 161.768 16.4999 164.821 16.5L164.931 16.5L1033.83 16.5H1122.7H1122.74C1123.01 16.5 1123.27 16.5 1123.52 16.5001C1127.35 16.5013 1130.32 16.5209 1132.65 16.834C1132.74 16.8471 1132.84 16.8608 1132.94 16.875C1135.3 17.2255 1137.05 17.9117 1138.42 19.2825C1138.6 19.4608 1138.77 19.6456 1138.92 19.8374C1140.01 21.1799 1140.58 22.8649 1140.87 25.0579C1140.91 25.3684 1140.95 25.6902 1140.98 26.0239C1141.2 28.3595 1141.2 31.2765 1141.2 34.9587V35V115.902C1141.2 118.852 1141.21 120.217 1141.63 121.487C1141.63 121.487 1141.63 121.488 1141.63 121.488C1142.04 122.758 1142.84 123.863 1144.59 126.243L1167.98 158.179L1168.04 158.26C1168.14 158.402 1168.24 158.54 1168.34 158.675C1169.82 160.692 1170.64 161.864 1171.08 163.214C1171.14 163.394 1171.19 163.575 1171.24 163.761C1171.55 165.057 1171.55 166.54 1171.55 169.008V292.082ZM1171.55 292.082V291.804M1171.55 292.082V291.804M1171.55 291.804V204.658M1171.55 291.804V204.658M1171.55 204.658V169.11M1171.55 204.658V169.11M1171.55 169.11V169.011V169.11ZM1099.54 335.569L1041.61 371.5H233.312C230.233 371.5 228.808 371.494 227.49 371.044C226.172 370.593 225.041 369.726 222.605 367.842L60.2923 242.28C56.823 239.596 55.2264 238.346 54.3692 236.599C53.512 234.852 53.5 232.825 53.5 228.438V111.124C53.5 106.858 53.5114 104.886 54.3273 103.175C55.0923 101.57 56.4803 100.371 59.3811 98.0148C59.5745 97.8577 59.7746 97.6955 59.9817 97.5277L106.091 60.1595L153.913 21.4042C156.393 19.3944 157.545 18.4695 158.903 17.9881C160.262 17.5066 161.739 17.5 164.931 17.5L1033.83 17.5H1122.7C1126.96 17.5 1130.1 17.5011 1132.51 17.825C1134.91 18.1471 1136.51 18.78 1137.71 19.9896C1138.85 21.1236 1139.48 22.5977 1139.82 24.7513C1139.84 24.8949 1139.86 25.0415 1139.88 25.1912C1140.2 27.6009 1140.2 30.7432 1140.2 35V115.902V116.004C1140.2 118.473 1140.2 119.956 1140.52 121.252C1140.56 121.438 1140.62 121.619 1140.68 121.799C1141.15 123.238 1142.05 124.475 1143.72 126.752L1143.78 126.834L1167.17 158.77C1168.91 161.15 1169.71 162.255 1170.13 163.525C1170.13 163.525 1170.13 163.525 1170.13 163.526C1170.55 164.796 1170.55 166.161 1170.55 169.11V204.658V291.526L1099.54 335.569Z" stroke="url(#paint0_linear)" stroke-opacity="0.15"/>
</g>
<g filter="url(#filter1_bdii)">
<path d="M54.3661 40.8795L98.542 5.02414C100.997 3.03194 102.224 2.03584 103.684 1.51792C105.144 1 106.724 1 109.886 1L1022.13 1L1103.63 1C1112.11 1 1116.35 1 1118.99 3.63604C1121.63 6.27208 1121.63 10.5147 1121.63 19V98.7048V142V292L1075.56 320.5L1029.5 349H173.531C170.481 349 168.956 349 167.54 348.516C166.124 348.031 164.918 347.097 162.507 345.229L12.2082 228.784C8.78278 226.13 7.07008 224.803 6.15119 222.929C5.2323 221.055 5.2323 218.888 5.2323 214.555L5.2323 89.3321C5.2323 85.1186 5.2323 83.0118 6.10685 81.1756C6.9814 79.3394 8.6172 78.0117 11.8888 75.3563L54.3661 40.8795Z" fill="white" fill-opacity="0.03"/>
<path d="M1029.63 349.213L1075.69 320.713L1121.76 292.213L1121.88 292.139V292V142V98.7048V19V18.9814C1121.88 14.755 1121.88 11.559 1121.54 9.09124C1121.21 6.61269 1120.54 4.83147 1119.17 3.45926C1117.79 2.08705 1116.01 1.41497 1113.54 1.08173C1111.07 0.749999 1107.87 0.749999 1103.65 0.75H1103.63L1022.13 0.75L109.886 0.75L109.828 0.75C106.721 0.749979 105.101 0.749969 103.6 1.28231C102.1 1.81464 100.841 2.83604 98.4294 4.79358L98.3845 4.83003L54.2086 40.6854L11.7312 75.1622L11.6706 75.2114C8.45705 77.8196 6.78004 79.1807 5.88114 81.0681C4.98225 82.9554 4.98226 85.1152 4.9823 89.2541L4.9823 89.3321L4.9823 214.555L4.9823 214.635C4.98226 218.891 4.98224 221.113 5.92672 223.039C6.87119 224.966 8.62696 226.326 11.9914 228.932L12.0551 228.982L162.354 345.427L162.397 345.461C164.767 347.296 166.003 348.254 167.459 348.752C168.914 349.25 170.478 349.25 173.475 349.25H173.531H1029.5H1029.57L1029.63 349.213Z" stroke="url(#paint1_linear)" stroke-opacity="0.15" stroke-width="0.5"/>
</g>
<defs>
<filter id="filter0_bdii" x="43" y="7" width="1138.05" height="375" filterUnits="userSpaceOnUse" color-interpolation-filters="sRGB">
<feFlood flood-opacity="0" result="BackgroundImageFix"/>
<feGaussianBlur in="BackgroundImage" stdDeviation="4.5"/>
<feComposite in2="SourceAlpha" operator="in" result="effect1_backgroundBlur"/>
<feColorMatrix in="SourceAlpha" type="matrix" values="0 0 0 0 0 0 0 0 0 0 0 0 0 0 0 0 0 0 127 0"/>
<feOffset dy="4"/>
<feGaussianBlur stdDeviation="2"/>
<feColorMatrix type="matrix" values="0 0 0 0 0 0 0 0 0 0 0 0 0 0 0 0 0 0 0.25 0"/>
<feBlend mode="normal" in2="effect1_backgroundBlur" result="effect2_dropShadow"/>
<feBlend mode="normal" in="SourceGraphic" in2="effect2_dropShadow" result="shape"/>
<feColorMatrix in="SourceAlpha" type="matrix" values="0 0 0 0 0 0 0 0 0 0 0 0 0 0 0 0 0 0 127 0" result="hardAlpha"/>
<feOffset dx="1" dy="1"/>
<feGaussianBlur stdDeviation="6.5"/>
<feComposite in2="hardAlpha" operator="arithmetic" k2="-1" k3="1"/>
<feColorMatrix type="matrix" values="0 0 0 0 1 0 0 0 0 1 0 0 0 0 1 0 0 0 0.09 0"/>
<feBlend mode="normal" in2="shape" result="effect3_innerShadow"/>
<feColorMatrix in="SourceAlpha" type="matrix" values="0 0 0 0 0 0 0 0 0 0 0 0 0 0 0 0 0 0 127 0" result="hardAlpha"/>
<feOffset/>
<feGaussianBlur stdDeviation="4.5"/>
<feComposite in2="hardAlpha" operator="arithmetic" k2="-1" k3="1"/>
<feColorMatrix type="matrix" values="0 0 0 0 0 0 0 0 0 0 0 0 0 0 0 0 0 0 0.15 0"/>
<feBlend mode="normal" in2="effect3_innerShadow" result="effect4_innerShadow"/>
</filter>
<filter id="filter1_bdii" x="-1.2677" y="-5.5" width="1129.39" height="363" filterUnits="userSpaceOnUse" color-interpolation-filters="sRGB">
<feFlood flood-opacity="0" result="BackgroundImageFix"/>
<feGaussianBlur in="BackgroundImage" stdDeviation="3"/>
<feComposite in2="SourceAlpha" operator="in" result="effect1_backgroundBlur"/>
<feColorMatrix in="SourceAlpha" type="matrix" values="0 0 0 0 0 0 0 0 0 0 0 0 0 0 0 0 0 0 127 0"/>
<feOffset dy="4"/>
<feGaussianBlur stdDeviation="2"/>
<feColorMatrix type="matrix" values="0 0 0 0 0 0 0 0 0 0 0 0 0 0 0 0 0 0 0.25 0"/>
<feBlend mode="normal" in2="effect1_backgroundBlur" result="effect2_dropShadow"/>
<feBlend mode="normal" in="SourceGraphic" in2="effect2_dropShadow" result="shape"/>
<feColorMatrix in="SourceAlpha" type="matrix" values="0 0 0 0 0 0 0 0 0 0 0 0 0 0 0 0 0 0 127 0" result="hardAlpha"/>
<feOffset dx="1" dy="1"/>
<feGaussianBlur stdDeviation="6.5"/>
<feComposite in2="hardAlpha" operator="arithmetic" k2="-1" k3="1"/>
<feColorMatrix type="matrix" values="0 0 0 0 1 0 0 0 0 1 0 0 0 0 1 0 0 0 0.09 0"/>
<feBlend mode="normal" in2="shape" result="effect3_innerShadow"/>
<feColorMatrix in="SourceAlpha" type="matrix" values="0 0 0 0 0 0 0 0 0 0 0 0 0 0 0 0 0 0 127 0" result="hardAlpha"/>
<feOffset/>
<feGaussianBlur stdDeviation="4.5"/>
<feComposite in2="hardAlpha" operator="arithmetic" k2="-1" k3="1"/>
<feColorMatrix type="matrix" values="0 0 0 0 0 0 0 0 0 0 0 0 0 0 0 0 0 0 0.15 0"/>
<feBlend mode="normal" in2="effect3_innerShadow" result="effect4_innerShadow"/>
</filter>
<linearGradient id="paint0_linear" x1="887.379" y1="282.181" x2="706.183" y2="606.736" gradientUnits="userSpaceOnUse">
<stop stop-color="white"/>
<stop offset="1" stop-color="white" stop-opacity="0"/>
</linearGradient>
<linearGradient id="paint1_linear" x1="787.905" y1="265.253" x2="618.824" y2="567.648" gradientUnits="userSpaceOnUse">
<stop stop-color="white"/>
<stop offset="1" stop-color="white" stop-opacity="0"/>
</linearGradient>
</defs>
</svg>
